<?xml version="1.0" standalone="no"?><!DOCTYPE svg PUBLIC "-//W3C//DTD SVG 1.1//EN" "http://www.w3.org/Graphics/SVG/1.1/DTD/svg11.dtd"><svg width="16" height="16" viewBox="0 0 16 16" version="1.1" xmlns="http://www.w3.org/2000/svg" xmlns:xlink="http://www.w3.org/1999/xlink"><defs><style type="text/css"><![CDATA[
@font-face { font-family: ifont; src: url(http://at.alicdn.com/t/font_1442373896_4754455.eot?#iefix) format(embedded-opentype), url(http://at.alicdn.com/t/font_1442373896_4754455.woff) format(woff), url(http://at.alicdn.com/t/font_1442373896_4754455.ttf) format(truetype), url(http://at.alicdn.com/t/font_1442373896_4754455.svg#ifont) format(svg); }

]]></style></defs><g class="transform-group"><g transform="scale(0.015625, 0.015625)"><path d="M671.91601 592.673271 671.91601 475.725928c0-75.70904-52.527937-139.088059-123.305258-155.857782l0-16.769001c0-20.468874-16.522631-36.991505-36.991505-36.991505-20.468874 0-36.991505 16.522631-36.991505 36.991505l0 16.769001c-70.777321 16.769723-123.305258 80.148743-123.305258 155.857782L351.322485 592.673271 671.91601 592.673271zM671.91601 611.361206 671.91601 611.341698 351.322485 611.341698 351.322485 611.361206 302.00096 660.683453 302.00096 685.343493 721.238258 685.343493 721.238258 660.683453ZM511.619248 759.327226c27.127345 0 49.32297-22.194903 49.32297-49.322248L462.297 710.004978C462.297 737.132323 484.491903 759.327226 511.619248 759.327226z" fill="#fff"></path></g></g></svg>